<svg xmlns="http://www.w3.org/2000/svg" width="384.827" height="76.985" viewBox="0 0 384.827 76.985">
  <g id="Group_4" data-name="Group 4" transform="translate(0 -0.001)">
    <g id="Group_5" data-name="Group 5" transform="translate(0 0.001)">
      <path id="Path_41" data-name="Path 41" d="M414.594,37.69A20.207,20.207,0,0,0,403.486,26.5a23.044,23.044,0,0,0-16.269,0,20.131,20.131,0,0,0-11.039,11.16,22.519,22.519,0,0,0-1.463,8.254,22.456,22.456,0,0,0,1.458,8.225,19.6,19.6,0,0,0,4.382,6.717A19.344,19.344,0,0,0,387.2,65.3a21.749,21.749,0,0,0,8.137,1.48,21.98,21.98,0,0,0,8.169-1.48A20.084,20.084,0,0,0,414.6,54.148a22.392,22.392,0,0,0,1.469-8.232,22.33,22.33,0,0,0-1.472-8.226M407.5,51.421a12.845,12.845,0,0,1-2.776,4.375,12.464,12.464,0,0,1-9.373,3.843,13.508,13.508,0,0,1-5.192-.959,12.256,12.256,0,0,1-4.178-2.885,12.836,12.836,0,0,1-2.777-4.375,16.7,16.7,0,0,1,0-11,12.928,12.928,0,0,1,2.785-4.389,12.241,12.241,0,0,1,4.173-2.895,13.468,13.468,0,0,1,5.189-.968,13.635,13.635,0,0,1,5.221.962A12.066,12.066,0,0,1,404.734,36a12.867,12.867,0,0,1,2.771,4.389,16.75,16.75,0,0,1,0,11.028" transform="translate(-31.239 -2.087)" fill="#fff" fill-rule="evenodd"/>
      <path id="Path_42" data-name="Path 42" d="M346.629,65.9h-3.773l-.382-.793-17.919-37.17-.965-2.009h8.123l.383.794,13.086,27.178,13.084-27.178.382-.794h8.223l-.974,2.009L347.887,65.1l-.382.793Z" transform="translate(-26.977 -2.162)" fill="#fff" fill-rule="evenodd"/>
      <path id="Path_43" data-name="Path 43" d="M276.749,64.5V25.924h32.045V33h-24.62v8.094h14.893v7.077H284.174V58.82h26.135V65.9h-33.56Z" transform="translate(-23.072 -2.162)" fill="#fff" fill-rule="evenodd"/>
      <path id="Path_44" data-name="Path 44" d="M257.526,63.807l-8.381-14.749a12.176,12.176,0,0,0,2.141-.935,11.69,11.69,0,0,0,3.194-2.654l0,0a11.434,11.434,0,0,0,2.056-3.6,13.5,13.5,0,0,0-.192-9.046,10.176,10.176,0,0,0-2.691-3.789,11.652,11.652,0,0,0-4.181-2.342,17.2,17.2,0,0,0-5.282-.76H221.461V65.9h7.423V49.62H241.1l8.893,15.565.4.71h8.317Zm-9.245-22.537a4.516,4.516,0,0,1-1.7.878v0a9.768,9.768,0,0,1-2.682.324H228.884V33h15.242a8.081,8.081,0,0,1,2.477.335,4.424,4.424,0,0,1,1.653.928l.009.007a3.767,3.767,0,0,1,.987,1.421,5.71,5.71,0,0,1,.346,2.092,5.827,5.827,0,0,1-.345,2.125,3.429,3.429,0,0,1-.961,1.348Z" transform="translate(-18.463 -2.162)" fill="#fff" fill-rule="evenodd"/>
      <path id="Path_45" data-name="Path 45" d="M177.773,27.324V51.391q0,5.163,1.714,6.726l0,0a5.8,5.8,0,0,0,2.59,1.145,23.08,23.08,0,0,0,5.009.451q5.822,0,7.574-1.6a4.759,4.759,0,0,0,1.211-2.27,17.219,17.219,0,0,0,.479-4.457V25.924h7.423V52.635a18.724,18.724,0,0,1-.98,6.374,10.362,10.362,0,0,1-3.088,4.547,13.118,13.118,0,0,1-5.279,2.519,34.867,34.867,0,0,1-14.728,0,13.136,13.136,0,0,1-5.279-2.519A10.407,10.407,0,0,1,171.328,59a18.746,18.746,0,0,1-.975-6.37V25.924h7.42Z" transform="translate(-14.202 -2.162)" fill="#fff" fill-rule="evenodd"/>
      <path id="Path_46" data-name="Path 46" d="M129.1,64.5V33H113.448V25.924h38.73V33H136.523V65.9H129.1Z" transform="translate(-9.458 -2.162)" fill="#fff" fill-rule="evenodd"/>
      <path id="Path_47" data-name="Path 47" d="M63.994,63.882,82.208,26.712l.39-.789h5.571l.385.782,18.424,37.172,1,2.018H99.846l-.291-.574L91.321,48.748h.014l-2.852-5.715-.121-.241h0l-2.974-5.959-5.9,11.915H79.5L75.987,55.9l-4.141,8.415-.394.8-.382.782H63.007Z" transform="translate(-5.253 -2.162)" fill="#fff" fill-rule="evenodd"/>
      <path id="Path_48" data-name="Path 48" d="M12.381,70.605c.994-1.617,1.149-1.412.824.829a6.393,6.393,0,0,0-.087,2.469c.035.989.7.911.406,1.7-1.143,3.079.588,4.844.977,2.391.475-3,1.974-2.543,1.521-3.482-1.214-2.514.58-1.941.5-3.262-.159-2.451.54-1.018,1.223-.834.965.347.852.822,1.338,1.443,1.816,2.4,2.25.328,3.659,2.741.767,1.311,1.906-.98,6.212,3.027.63.413,1.747.867,1.466-.146a6.209,6.209,0,0,0-2.972-3.816c-1.294-.585-1.783-1.553-3.2-2.459-1.128-.723-1.995-2.947-2.172-3.414-.481-1.253,4.585,2.616,5.114,2.3.144-.085.2-.338.148-.64-.113-.656.007-.628.756.153.559.583.665.616,1.024.314s.567-.244,1.88.465a10.138,10.138,0,0,0,2.939,1.032c.935.078,4.03,2.523,3.169.168-1.034-2.82-3.14-2.159-4.009-3.07-1.926-2.028-2.566-2.446-4.719-3.081-.954-.28-2.382-.742-3.171-1.025-1.311-.469-1.457-.585-1.762-1.371a3.425,3.425,0,0,0-.835-1.251,5.519,5.519,0,0,1-1.724-2.7,10.6,10.6,0,0,1-.793-2.878V40.454L41.829,65.413l.42.482h4.393V46.676l-.3.234-6.127,3.917a.96.96,0,0,1-1.544-.1L17.554,26.41l-.423-.487H12.672V53.614c0,7.234-1.339,8.15-2.335,9.517-1.519,2.092-2.619,1.3-4.916,2.533-1.292.671-1.1,1.785-2.493,2.59-1.749,1.006-1.551.829-2.67,3.406-.871,2.009.628.963,2.118-.821a4.934,4.934,0,0,1,2.181-1.346c1.435-.5,2.111.172,2.911-1.239.359-.628,1.48-.364,2.2-.536-1.15.59-1.426,1.985-1.8,3.055-1.1,3.121-1.889,1.23-3,3.645-.708,1.544-.808,4.278,1.152.845.992-1.733,1.906.307,2.595-2.184.34-1.225,3.126-1.424,3.77-2.474" transform="translate(0 -2.162)" fill="#fff" fill-rule="evenodd"/>
      <path id="Path_49" data-name="Path 49" d="M42.587,36.075c2.182-1.344,4.431-3.069,6.922-4.609,12.3-7.6,18.125-6.667,16.908-18.9-2.21,1.579-4.053,3.033-7.1,4.842-13.367,7.942-18.738,6.306-16.731,18.67" transform="translate(-3.517 -1.048)" fill="#fff" fill-rule="evenodd"/>
      <path id="Path_50" data-name="Path 50" d="M42.587,48.62c2.182-1.344,4.431-3.069,6.922-4.609,12.3-7.6,18.125-6.667,16.908-18.9-2.21,1.579-4.053,3.033-7.1,4.842C45.951,37.891,40.58,36.256,42.587,48.62" transform="translate(-3.517 -2.094)" fill="#fff" fill-rule="evenodd"/>
      <path id="Path_51" data-name="Path 51" d="M42.587,23.513c2.182-1.344,4.431-3.069,6.922-4.609,12.3-7.6,18.125-6.667,16.908-18.9-2.21,1.579-4.053,3.033-7.1,4.842-13.367,7.942-18.738,6.306-16.731,18.67" transform="translate(-3.517 -0.001)" fill="#fff" fill-rule="evenodd"/>
    </g>
  </g>
</svg>
